<?xml version="1.0" encoding="utf-8"?>
<!-- Generator: Adobe Illustrator 18.1.1, SVG Export Plug-In . SVG Version: 6.00 Build 0)  -->
<svg version="1.1" id="Layer_1" xmlns="http://www.w3.org/2000/svg" xmlns:xlink="http://www.w3.org/1999/xlink" x="0px" y="0px"
	 viewBox="0 123.4 595.3 595.2" enable-background="new 0 123.4 595.3 595.2" xml:space="preserve">
<circle fill="#DD4B38" cx="297.6" cy="420.9" r="297.6"/>
<g>
	<path fill="#FFFFFF" d="M305.5,441.7l-13.7-10.7c-4.2-3.5-9.9-8.1-9.9-16.4c0-8.4,5.7-13.8,10.7-18.8c16-12.6,32.1-26,32.1-54.3
		c0-29.1-18.3-44.4-27.1-51.6h23.6l24.8-15.6h-75.2c-20.7,0-50.4,4.9-72.2,22.8c-16.4,14.2-24.4,33.7-24.4,51.3
		c0,29.8,22.9,60.1,63.4,60.1c3.9,0,8-0.4,12.2-0.8c-1.9,4.6-3.8,8.4-3.8,14.9c0,11.9,6.1,19.1,11.5,26c-17.2,1.2-49.3,3.1-73,17.6
		c-22.5,13.4-29.4,32.9-29.4,46.7c0,28.4,26.7,54.8,82.1,54.8c65.7,0,100.4-36.4,100.4-72.3C337.6,468.9,322.4,455.9,305.5,441.7z
		 M255.5,397.7c-32.9,0-47.7-42.5-47.7-68.1c0-10,1.9-20.3,8.4-28.3c6.1-7.6,16.8-12.7,26.8-12.7c31.6,0,48.1,42.8,48.1,70.4
		c0,6.9-0.7,19.1-9.5,27.9C275.3,393.2,265,397.7,255.5,397.7z M255.9,551.7c-40.9,0-67.2-19.6-67.2-46.7
		c0-27.2,24.4-36.4,32.8-39.4c16-5.4,36.7-6.2,40.1-6.2c3.8,0,5.7,0,8.8,0.4c29,20.7,41.7,31,41.7,50.6
		C312,534,292.5,551.7,255.9,551.7z"/>
	<polygon fill="#FFFFFF" points="401.9,397.2 401.9,358.9 383.1,358.9 383.1,397.2 344.8,397.2 344.8,416.2 383.1,416.2 
		383.1,454.8 401.9,454.8 401.9,416.2 440.3,416.2 440.3,397.2 	"/>
</g>
</svg>
