<?xml version="1.0" encoding="utf-8"?>
<!-- Generator: Adobe Illustrator 18.1.1, SVG Export Plug-In . SVG Version: 6.00 Build 0)  -->
<svg version="1.1" id="Layer_1" xmlns="http://www.w3.org/2000/svg" xmlns:xlink="http://www.w3.org/1999/xlink" x="0px" y="0px"
	 viewBox="0 0 595.3 595.2" enable-background="new 0 0 595.3 595.2" xml:space="preserve">
<circle fill="#579441" cx="297.6" cy="297.6" r="297.6"/>
<path fill="none" stroke="#5F6D71" stroke-width="7.6162" d="M94,255"/>
<path fill="#FFFFFF" d="M86.2,296.6c4.6,12.5,18.6,19,31.1,14.3c12.5-4.6,19-18.6,14.3-31.1c-4.6-12.6-18.6-19-31.1-14.3
	C88,270.1,81.6,284,86.2,296.6z"/>
<circle fill="#FFFFFF" cx="55.2" cy="288.1" r="24.2"/>
<path fill="#BE3739" d="M59.4,287.8c0,2.5-2,4.5-4.5,4.5c-2.5,0-4.5-2-4.5-4.5c0-2.5,2-4.5,4.5-4.5
	C57.4,283.4,59.4,285.4,59.4,287.8z"/>
<path fill="#599442" d="M113.3,287.8c0,2.5-2,4.5-4.5,4.5c-2.5,0-4.5-2-4.5-4.5c0-2.5,2-4.5,4.5-4.5
	C111.3,283.4,113.3,285.4,113.3,287.8z"/>
<path fill="#010101" d="M41.6,287.8c0,7.3,6,13.3,13.3,13.3c7.3,0,13.3-6,13.3-13.3c0-7.3-6-13.3-13.3-13.3
	C47.6,274.5,41.6,280.5,41.6,287.8z M46.2,287.8c0-4.8,3.9-8.7,8.7-8.7c4.8,0,8.7,3.9,8.7,8.7c0,4.8-3.9,8.7-8.7,8.7
	C50.1,296.6,46.2,292.6,46.2,287.8z"/>
<path fill="#010101" d="M95.6,287.8c0,7.3,6,13.3,13.3,13.3c7.3,0,13.3-6,13.3-13.3c0-7.3-6-13.3-13.3-13.3
	C101.5,274.5,95.6,280.5,95.6,287.8z M100.1,287.8c0-4.8,3.9-8.7,8.7-8.7c4.8,0,8.7,3.9,8.7,8.7c0,4.8-3.9,8.7-8.7,8.7
	C104.1,296.6,100.1,292.6,100.1,287.8z"/>
<path fill="none" d="M91,300c2.2,3.3,5.2,6,8.9,7.7c5.2,2.4,11.1,2.6,16.4,0.7c11.1-4.1,16.8-16.5,12.7-27.6
	c-4.1-11.1-16.5-16.8-27.6-12.7c-5.4,2-9.7,6-12.1,11.2c-1.6,3.5-2.1,7.3-1.8,11"/>
<path fill="#FFD881" d="M99.6,262.9c2.8-1,5.7-1.5,8.5-1.6c-7.7-3.5-16.5-5.2-26.1-5.2c-9.6,0-18.5,1.8-26.2,5.1
	c14,0.3,25.3,11.2,26.3,25c0.2-3.2,1-6.3,2.4-9.3C87.5,270.4,92.8,265.4,99.6,262.9z"/>
<path fill="#010101" d="M130.6,272.2c1.3-5.4,5.3-10.8,5.3-10.8l-18,0c-10.1-6.5-22.3-10-35.9-10c-14.1,0-26.8,3.5-36.8,10.1
	l-16.9,0c0,0,4,5.4,5.2,10.7c-3.3,4.5-5.2,9.9-5.2,15.9c0,14.8,12.1,26.9,26.9,26.9c8.5,0,16.1-4,21-10.1l5.7,8.6l5.8-8.7
	c2.6,3.3,6,6,9.9,7.8c6.5,3,13.9,3.3,20.6,0.8c13.9-5.2,21.1-20.7,15.9-34.6C133.3,276.4,132,274.2,130.6,272.2z M82,256.1
	c9.7,0,18.4,1.7,26.1,5.2c-2.8,0.1-5.7,0.6-8.5,1.6c-6.7,2.5-12.1,7.5-15.1,14c-1.4,3-2.1,6.1-2.4,9.3c-1-13.8-12.3-24.7-26.3-25
	C63.5,257.9,72.4,256.1,82,256.1z M73,300.1c-3.9,5.7-10.4,9.5-17.8,9.5c-11.9,0-21.5-9.7-21.5-21.5c0-11.9,9.6-21.5,21.5-21.5
	s21.5,9.6,21.5,21.5c0,0.7-0.1,1.4-0.2,2.1C76.2,293.8,75,297.2,73,300.1z M116.4,308.4c-5.4,2-11.2,1.8-16.4-0.6
	c-3.7-1.7-6.7-4.4-8.9-7.7c-0.9-1.3-1.7-2.8-2.2-4.3c-0.7-1.8-1-3.6-1.2-5.4c-0.4-3.7,0.2-7.5,1.8-11c2.4-5.2,6.7-9.2,12.1-11.2
	c11.1-4.1,23.5,1.6,27.6,12.7C133.2,291.9,127.5,304.2,116.4,308.4z"/>
<path fill="#C6C6C5" d="M288.5,324.9v13.5c0,5.2,1.9,7.8,6,7.8c4.1,0,6.2-2.8,6.2-8.2v-13.1h1.9v13.2c0,6.7-2.7,10-8.2,10
	c-5.3,0-8-3.3-8-9.6v-13.6L288.5,324.9L288.5,324.9z"/>
<path fill="#C6C6C5" d="M311.7,324.9l11.2,19.1c0.1,0.2,0.4,0.7,0.7,1.6c-0.1-0.8-0.2-1.5-0.2-2v-18.7h2v22.8h-2.6l-11.3-19.3
	c-0.3-0.5-0.5-1-0.7-1.7c0.1,1.1,0.2,1.8,0.2,2v19h-2v-22.8C309,324.9,311.7,324.9,311.7,324.9z"/>
<rect x="331.4" y="324.9" fill="#C6C6C5" width="2.1" height="22.8"/>
<polygon fill="#C6C6C5" points="352.3,324.9 352.3,326.9 345.7,326.9 345.7,347.7 343.6,347.7 343.6,326.9 336.9,326.9 336.9,324.9 
	"/>
<polygon fill="#C6C6C5" points="366.8,324.9 366.8,326.7 357.8,326.7 357.8,334.9 366.3,334.9 366.3,336.8 357.8,336.8 357.8,345.7 
	367,345.7 367,347.7 355.7,347.7 355.7,324.9 "/>
<path fill="#C6C6C5" d="M376.7,324.9c8.3,0,12.6,3.9,12.6,11.3c0,7.2-4.6,11.5-12.4,11.5h-4.5v-22.8L376.7,324.9L376.7,324.9z
	 M374.5,345.7h2.6c6.3,0,9.9-3.6,9.9-9.5c0-6.2-3.3-9.5-9.8-9.5h-2.8V345.7z"/>
<polygon fill="#C6C6C5" points="405.3,324.9 405.3,335 415.7,324.9 418.4,324.9 407.4,335.6 419.3,347.7 416.4,347.7 405.3,336.3 
	405.3,347.7 403.2,347.7 403.2,324.9 "/>
<rect x="421.5" y="324.9" fill="#C6C6C5" width="2.1" height="22.8"/>
<path fill="#C6C6C5" d="M432.5,324.9l11.2,19.1c0.1,0.2,0.4,0.7,0.7,1.6c-0.1-0.8-0.2-1.5-0.2-2v-18.7h2v22.8h-2.6l-11.3-19.3
	c-0.3-0.5-0.5-1-0.7-1.7c0.1,1.1,0.2,1.8,0.2,2v19h-2v-22.8C429.8,324.9,432.5,324.9,432.5,324.9z"/>
<path fill="#C6C6C5" d="M468.3,327.9c-1.7-0.9-3.6-1.3-5.7-1.3c-5.7,0-9.4,3.7-9.4,9.6c0,6,3.8,9.8,9.8,9.8c1.6,0,2.9-0.3,4.2-0.8
	v-7.9H462v-1.8h7.4v11.1c-2,0.8-4.2,1.2-6.6,1.2c-3,0-5.4-0.7-7.4-2.2c-2.9-2.1-4.5-5.4-4.5-9.4c0-2.7,0.7-5,2.2-7.1
	c1.8-2.6,5.3-4.4,9.4-4.4c2.2,0,4.2,0.4,6.1,1.1L468.3,327.9z"/>
<path fill="#C6C6C5" d="M479.2,324.9c8.3,0,12.6,3.9,12.6,11.3c0,7.2-4.5,11.5-12.4,11.5h-4.5v-22.8L479.2,324.9L479.2,324.9z
	 M477,345.7h2.6c6.3,0,9.9-3.6,9.9-9.5c0-6.2-3.3-9.5-9.8-9.5H477L477,345.7L477,345.7z"/>
<path fill="#C6C6C5" d="M515.3,336.3c0,7.3-4,11.8-10,11.8c-6,0-10.1-4.5-10.1-11.8c0-7.3,4-11.8,10.1-11.8
	C511.3,324.5,515.3,329,515.3,336.3 M497.5,336.3c0,6.1,3.1,9.9,7.8,9.9c4.6,0,7.7-3.8,7.7-9.9c0-6.1-3.1-9.9-7.7-9.9
	C500.6,326.4,497.5,330.1,497.5,336.3"/>
<path fill="#C6C6C5" d="M523.3,324.9l7.7,18.8c0.2,0.6,0.4,1.2,0.5,2c0.1-0.7,0.2-1.3,0.5-1.9l8.1-18.9h3.1v22.8h-2v-19.2
	c0-0.1,0-0.3,0-0.7c0-0.4,0-0.8,0.2-1.3c-0.5,1-0.7,1.5-0.7,1.7l-8.3,19.5h-1.8l-8.1-19.5c-0.1-0.2-0.3-0.8-0.5-1.7
	c0.1,1.1,0.2,1.8,0.2,2v19.2h-2v-22.8C520.1,324.9,523.3,324.9,523.3,324.9z"/>
<path fill="#599442" d="M414.5,255.7c0,2.9,2.3,5.2,5.2,5.2c2.9,0,5.2-2.3,5.2-5.2c0-2.9-2.3-5.2-5.2-5.2
	C416.9,250.5,414.5,252.8,414.5,255.7z"/>
<path fill="#010101" d="M167.6,255.3l-7.9,2.7c0,0,0,9.4,0,10.3c-0.8,0-8.7,0-8.7,0v6.9c0,0,7.7,0,8.5,0c0,0.9,0,22.1,0,22.1
	c0,10.5,3.6,14.8,12.4,14.8c2.2,0,4.4-0.3,6.5-0.9l0.3-0.1l-0.1-7.1l-0.6,0.2c-1.7,0.6-3.1,0.9-4.1,0.9c-4.1,0-5.7-2.3-5.7-8.6
	c0,0,0-20.5,0-21.4c0.8,0,10.1,0,10.1,0v-6.9c0,0-9.2,0-10.1,0c0-0.9,0-13.2,0-13.2L167.6,255.3z"/>
<path fill="#010101" d="M194.9,275.3c0-2.4,0-7,0-7h-8v43.1h8.7v-21.6c0-9.1,3.8-14.1,10.7-14.1c1,0,2,0.1,3.2,0.5l0.6,0.2l0.3-8.5
	l-3.8-0.3C201.5,267.6,197.4,270.3,194.9,275.3z"/>
<g>
	<path fill="#010101" d="M257.3,267.3c-6,0-11,2.8-14.4,8c0-2.1,0-7,0-7h-8V329h8.7c0,0,0-21.2,0-23.5c3.2,4.3,7.7,6.7,13.3,6.7
		c11.1,0,18.2-9.1,18.2-23.1C275.1,276.1,267.9,267.3,257.3,267.3z M254.8,305.1c-6.9,0-11.2-5.9-11.2-15.4
		c0-9.2,4.5-15.1,11.5-15.1c6.8,0,10.8,5.6,10.8,15C266,299.1,261.7,305.1,254.8,305.1z"/>
</g>
<g>
	<path fill="#FFFFFF" d="M300.7,267.3c-5.3,0-10,1-14.3,3.1l-0.3,0.1l0.1,7.5l0.7-0.4c4.1-2.3,8-3.5,11.5-3.5c6.3,0,10,3.6,10,10
		c0,0,0,0.2,0,0.4c-0.8,0-5,0-5,0c-14.4,0-22.3,5.2-22.3,14.7c0,7.6,5.7,12.9,13.9,12.9c6,0,10.7-2.4,14-6.8c0,1.7,0,6.2,0,6.2h7.9
		v-26.1C316.8,273.4,311.4,267.3,300.7,267.3z M308.3,293.2c0,7.4-4.5,12.2-11.4,12.2c-4.2,0-7.2-2.8-7.2-6.8c0-5.2,5-8.1,14.1-8.1
		c0,0,3.7,0,4.5,0C308.3,291.3,308.3,293.2,308.3,293.2z"/>
</g>
<g>
	<path fill="#FFFFFF" d="M354,247.7c0,0,0,24,0,26.4c-3.2-4.5-7.7-6.9-13.5-6.9c-10.7,0-17.9,8.8-17.9,21.9
		c0,13.5,7.3,22.9,17.7,22.9c6.2,0,11-2.7,14.3-8c0,2.1,0,7.4,0,7.4h8.1v-63.7H354z M342.6,304.9c-6.7,0-10.8-5.8-10.8-15.2
		c0-9.4,4.2-15.4,10.6-15.4c7.2,0,11.5,5.8,11.5,15.4C354,298.9,349.5,304.9,342.6,304.9z"/>
</g>
<path fill="#FFFFFF" d="M401.8,268.3l-12.4,24.9l-11.5-24.9h-9.9l21.1,43.1l21.7-43.1H401.8z"/>
<path fill="#FFFFFF" d="M423.7,268.3h-8.3v43.1h8.8v-43.1H423.7z"/>
<path fill="#FFFFFF" d="M434.4,279.4c0,6.1,4.2,9.3,11.9,13c4.9,2.4,7.4,3.8,7.4,7.1c0,3.4-3.1,5.7-7.9,5.7c-3.4,0-7.2-1-11-2.8
	l-0.6-0.3l-0.3,7.6l0.3,0.1c3.6,1.4,7.4,2.1,11.3,2.1c10.7,0,17.6-5.1,17.6-13c0-6.6-4.4-9.9-11.9-13.4c-5.5-2.6-7.9-4.1-7.9-6.9
	c0-2.6,2.6-4.3,6.6-4.3c3.6,0,7.1,0.8,10.5,2.4l0.6,0.3l0.4-7.4l-0.3-0.1c-3.6-1.1-7.2-1.6-10.6-1.6
	C440.7,267.8,434.4,272.5,434.4,279.4z"/>
<g>
	<path fill="#FFFFFF" d="M490.2,267.3c-13.1,0-21.3,8.6-21.3,22.6c0,13.9,8.2,22.6,21.3,22.6c13.2,0,21.4-8.6,21.4-22.6
		C511.6,276,503.4,267.3,490.2,267.3z M490.3,305.3c-7.3,0-12.1-6.2-12.1-15.5c0-9.3,4.9-15.6,12.1-15.6c7.4,0,12.1,6.1,12.1,15.6
		C502.5,299.2,497.7,305.3,490.3,305.3z"/>
</g>
<path fill="#FFFFFF" d="M527.8,275.3c0-2.4,0-7,0-7h-8v43.1h8.7v-21.6c0-9.1,3.8-14.1,10.7-14.1c1,0,2,0.1,3.1,0.5l0.6,0.2l0.3-8.5
	l-3.8-0.3C534.4,267.6,530.3,270.3,527.8,275.3z"/>
<path fill="#010101" d="M225.9,268.3h-8.3v43.1h8.7v-43.1H225.9z"/>
<path fill="#010101" d="M216.8,255.7c0,2.9,2.3,5.2,5.2,5.2c2.9,0,5.2-2.3,5.2-5.2c0-2.9-2.3-5.2-5.2-5.2
	C219.1,250.5,216.8,252.8,216.8,255.7z"/>
<path fill="#ABC99F" d="M564.1,266.4c1.4,1.5,2.2,3.4,2.2,5.5c0,2.2-0.8,4.1-2.3,5.5c-1.6,1.5-3.5,2.3-5.5,2.3c-2.1,0-4-0.8-5.5-2.4
	c-1.4-1.5-2.3-3.4-2.3-5.4c0-2.1,0.8-4.1,2.4-5.6c1.5-1.4,3.3-2.2,5.4-2.2C560.6,264.1,562.6,264.9,564.1,266.4z M554,267.3
	c-1.3,1.3-1.9,2.9-1.9,4.6c0,1.7,0.6,3.2,1.8,4.4c1.2,1.3,2.8,1.9,4.5,1.9c1.7,0,3.3-0.6,4.5-1.8c1.2-1.2,1.9-2.8,1.9-4.5
	c0-1.7-0.6-3.3-1.8-4.5c-1.2-1.3-2.8-1.9-4.6-1.9C556.7,265.5,555.2,266.1,554,267.3z M558.6,267.4c2.4,0,3.7,0.9,3.7,2.5
	c0,1.1-0.7,2-1.8,2.3l1.9,3.8h-2.6l-1.6-3.4h-0.7v3.4h-2.4v-8.6L558.6,267.4L558.6,267.4z M557.5,271.2h0.8c1.1,0,1.6-0.4,1.6-1.1
	c0-0.8-0.5-1.2-1.7-1.2h-0.7V271.2L557.5,271.2z"/>
</svg>
