<?xml version="1.0" encoding="utf-8"?>
<!-- Generator: Adobe Illustrator 18.1.1, SVG Export Plug-In . SVG Version: 6.00 Build 0)  -->
<svg version="1.1" id="Layer_1" xmlns="http://www.w3.org/2000/svg" xmlns:xlink="http://www.w3.org/1999/xlink" x="0px" y="0px"
	 viewBox="0 123.4 595.3 595.2" enable-background="new 0 123.4 595.3 595.2" xml:space="preserve">
<circle fill="#C32026" cx="297.6" cy="420.9" r="297.6"/>
<g id="g1338" transform="matrix(1.25,0,0,-1.25,-46.875,1061.1122)">
	<g>
		<g>
			<defs>
				<rect id="SVGID_1_" x="36.3" y="395.4" width="476.4" height="232.4"/>
			</defs>
			<clipPath id="SVGID_2_">
				<use xlink:href="#SVGID_1_"  overflow="visible"/>
			</clipPath>
			<g id="g1340" clip-path="url(#SVGID_2_)">
				<g id="g1346" transform="translate(405.717,287.389)">
					<path id="path1348" fill="#FFFFFF" d="M15.9,215.5c-1.9,1.5-2.2,1.7-14,5.5c10.2,2.5,10.5,2.8,12.3,4c4,2.8,6.3,7.3,5.9,12.3
						l-0.1,0.5c-0.8,7.9-11.1,22.9-17.9,26.3c-4.6,2.2-9.6,1.9-13.6-0.8c-1.9-1.3-2.1-1.4-9.9-12c-0.7,12.3-2.2,33.9-2.5,36
						l-0.1,0.4l-0.1,0.4c-1.3,4.8-5.1,8.4-10,9.6c-8.2,2.1-30.1-4.1-36-10.2c-3.4-3.6-4.8-8.4-3.6-12.9l0.2-0.9l0.4-0.8
						c0.6-1.1,2-3.6,14.7-23.5l4.6-7.3c-11.4,4.6-11.8,4.6-14.1,4.7c-4.5,0.2-9-2.2-11.7-6.4l-0.1-0.1c-1.4-2.2-2.2-5.3-2.8-8.5
						c-3.7,4.9-9.1,8.9-17.5,10.5c-5.9,1.2-11.4,0.4-16.7-1.6c-4.8,3.1-11.4,3.4-16.9,0.3c-1.7-1-3-2.1-4-3.4v6.7l-0.5,4l-0.1,0.7
						c-1.1,4.3-4.4,8-8.8,9.8h-0.1c-4.9,1.9-10.2,1.5-14.8-1.3c-4.9-2.9-7.4-7.7-7.4-14.3v-13.8c-1.7,2.7-3.9,5.1-6.4,7
						c-6.9,5.2-16.1,7-26.6,5.1c-6.1-1-11.2-3.7-15.2-7.6c-0.1,0.1-0.1,0.3-0.2,0.4c-2.1,3.7-5.4,6.2-9.6,7.3
						c-7.2,1.9-16.2-0.4-20-13.2c0,0-0.6-2.1-1.4-4.9c-1.6,3-5.9,11.2-6.1,11.4c-3.8,5.8-11.5,8.3-18.3,5.6
						c-6.7-2.5-10.5-8.3-10.5-15.2c0-2.2,0.4-4.4,1.2-6.7l0.2-0.5c0,0,13.6-27.7,17.6-35.7c-6.4-1.6-10.8-6.4-11.6-12.9
						c-0.1-0.6-0.1-1.3-0.1-1.9c0-4.1,1.7-8.1,4.9-10.9c4.8-4.4,12.1-5.8,20.9-4c9.4,1.9,14.9,7.5,18.6,19.6l5.8,18.2
						c1.9-7.6,5.3-12.6,8.5-15.8c4.6-4.6,13.2-9.7,27.4-7.8c10.5,1.5,17.8,6.2,21.8,11.7l0.2-1.3c1.1-4,4.2-7.5,8.3-9.3
						c4.3-2,9.3-1.9,13.6,0.1c2.2,1,4.2,2.5,5.7,4.5v-5.8c0-9.5,5.5-13.5,8.7-15c4.3-2.2,9.3-2.3,13.8-0.4c4.2,1.8,7.3,5.3,8.5,9.5
						l0.2,0.7l0.6,3.9c0,0,0,1.5,0,1.6c5.7-0.6,11.7,0.4,16.9,3.1c2.3,1.2,4.3,2.6,6.1,4.3h3.8c2.1-1.1,4.5-1.8,7-1.8
						c2.5,0,4.9,0.7,7,1.8h11.1c7.4-4.2,18.2-7.3,23.9-6.3c5,0.9,8.9,4.1,10.5,8.6l0.1,0.2c0.7,2,0.8,2.4,0.9,14
						c6.4-10.2,6.7-10.5,8.4-11.9c3.8-3,8.8-3.7,13.5-1.8c7.5,3,18.8,17.4,20,25.4c0.1,0.7,0.1,1.4,0.1,2.1
						C20.9,209,19.1,212.9,15.9,215.5z M-99.6,242.4L-99.6,242.4C-99.5,242.4-99.5,242.4-99.6,242.4L-99.6,242.4z M0.8,177.4
						L0.8,177.4L0.8,177.4L0.8,177.4"/>
				</g>
				<g id="g1350" transform="translate(405.717,287.389)">
					<path id="path1352" fill="none" stroke="#BDBCBC" stroke-width="0.145" stroke-linecap="round" stroke-linejoin="round" d="
						M15.9,215.5c-1.9,1.5-2.2,1.7-14,5.5c10.2,2.5,10.5,2.8,12.3,4c4,2.8,6.3,7.3,5.9,12.3l-0.1,0.5c-0.8,7.9-11.1,22.9-17.9,26.3
						c-4.6,2.2-9.6,1.9-13.6-0.8c-1.9-1.3-2.1-1.4-9.9-12c-0.7,12.3-2.2,33.9-2.5,36l-0.1,0.4l-0.1,0.4c-1.3,4.8-5.1,8.4-10,9.6
						c-8.2,2.1-30.1-4.1-36-10.2c-3.4-3.6-4.8-8.4-3.6-12.9l0.2-0.9l0.4-0.8c0.6-1.1,2-3.6,14.7-23.5l4.6-7.3
						c-11.4,4.6-11.8,4.6-14.1,4.7c-4.5,0.2-9-2.2-11.7-6.4l-0.1-0.1c-1.4-2.2-2.2-5.3-2.8-8.5c-3.7,4.9-9.1,8.9-17.5,10.5
						c-5.9,1.2-11.4,0.4-16.7-1.6c-4.8,3.1-11.4,3.4-16.9,0.3c-1.7-1-3-2.1-4-3.4v6.7l-0.5,4l-0.1,0.7c-1.1,4.3-4.4,8-8.8,9.8h-0.1
						c-4.9,1.9-10.2,1.5-14.8-1.3c-4.9-2.9-7.4-7.7-7.4-14.3v-13.8c-1.7,2.7-3.9,5.1-6.4,7c-6.9,5.2-16.1,7-26.6,5.1
						c-6.1-1-11.2-3.7-15.2-7.6c-0.1,0.1-0.1,0.3-0.2,0.4c-2.1,3.7-5.4,6.2-9.6,7.3c-7.2,1.9-16.2-0.4-20-13.2c0,0-0.6-2.1-1.4-4.9
						c-1.6,3-5.9,11.2-6.1,11.4c-3.8,5.8-11.5,8.3-18.3,5.6c-6.7-2.5-10.5-8.3-10.5-15.2c0-2.2,0.4-4.4,1.2-6.7l0.2-0.5
						c0,0,13.6-27.7,17.6-35.7c-6.4-1.6-10.8-6.4-11.6-12.9c-0.1-0.6-0.1-1.3-0.1-1.9c0-4.1,1.7-8.1,4.9-10.9
						c4.8-4.4,12.1-5.8,20.9-4c9.4,1.9,14.9,7.5,18.6,19.6l5.8,18.2c1.9-7.6,5.3-12.6,8.5-15.8c4.6-4.6,13.2-9.7,27.4-7.8
						c10.5,1.5,17.8,6.2,21.8,11.7l0.2-1.3c1.1-4,4.2-7.5,8.3-9.3c4.3-2,9.3-1.9,13.6,0.1c2.2,1,4.2,2.5,5.7,4.5v-5.8
						c0-9.5,5.5-13.5,8.7-15c4.3-2.2,9.3-2.3,13.8-0.4c4.2,1.8,7.3,5.3,8.5,9.5l0.2,0.7l0.6,3.9c0,0,0,1.5,0,1.6
						c5.7-0.6,11.7,0.4,16.9,3.1c2.3,1.2,4.3,2.6,6.1,4.3h3.8c2.1-1.1,4.5-1.8,7-1.8c2.5,0,4.9,0.7,7,1.8h11.1
						c7.4-4.2,18.2-7.3,23.9-6.3c5,0.9,8.9,4.1,10.5,8.6l0.1,0.2c0.7,2,0.8,2.4,0.9,14c6.4-10.2,6.7-10.5,8.4-11.9
						c3.8-3,8.8-3.7,13.5-1.8c7.5,3,18.8,17.4,20,25.4c0.1,0.7,0.1,1.4,0.1,2.1C20.9,209,19.1,212.9,15.9,215.5z"/>
					<g id="g1354" transform="translate(-23.075,5.382)">
						<path id="path1356" fill="none" stroke="#BDBCBC" stroke-width="0.145" stroke-linecap="round" stroke-linejoin="round" d="
							M-76.6,237C-76.5,237-76.5,237-76.6,237C-76.5,237-76.5,237-76.6,237L-76.6,237z"/>
						<g id="g1358" transform="translate(20.06,-12.978)">
							<path id="path1360" fill="none" stroke="#BDBCBC" stroke-width="0.145" stroke-linecap="round" stroke-linejoin="round" d="
								M3.8,185L3.8,185L3.8,185L3.8,185z"/>
						</g>
					</g>
				</g>
			</g>
		</g>
	</g>
</g>
<g id="g1362" transform="matrix(1.25,0,0,-1.25,438.16125,697.87345)">
	<path id="path1364" fill="#E9E9E9" d="M-55,228.3c-1.8-2.9-2.5-12-1.9-18c0.2-2,0.6-3.7,1.1-4.6c0.7-1.3,1.9-2.2,3.3-2.2
		c0.9-0.1,1.4,0.1,18.1,5.5c0,0,7.4,2.3,7.5,2.4c1.9,0.4,3.1,2.2,3.2,4.3c0.1,2.2-1,4.2-2.9,4.9l-5.2,2.2
		c-17.9,7.4-18.7,7.7-19.6,7.7C-52.9,230.3-54.1,229.6-55,228.3"/>
</g>
<g id="g1366" transform="matrix(1.25,0,0,-1.25,448.16,711.61345)">
	<path id="path1368" fill="#E9E9E9" d="M-22.9,184.2c0.3,0.8,0.3,1.4,0.4,18.9c0,0,0.1,7.7,0.1,7.8c0.1,1.9-1.1,3.6-3.1,4.4
		c-2.1,0.8-4.3,0.3-5.5-1.3l-3.7-4.3c-12.6-14.7-13.1-15.4-13.4-16.3c-0.2-0.5-0.3-1-0.2-1.6c0.1-0.7,0.4-1.6,1-2.2
		c2.9-3.4,16.8-8.6,21.3-7.8C-24.5,182.1-23.4,183-22.9,184.2"/>
</g>
<g id="g1370" transform="matrix(1.25,0,0,-1.25,455.2225,710.0922)">
	<path id="path1372" fill="#E9E9E9" d="M-0.3,189.1c4.2,1.6,13.4,13.4,14.1,17.9c0.2,1.6-0.3,2.9-1.3,3.7c-0.7,0.5-1.3,0.7-17.9,6.2
		c0,0-7.3,2.4-7.4,2.5c-1.8,0.7-3.8,0.1-5.2-1.6c-1.4-1.7-1.6-4-0.5-5.7l2.9-4.8c9.9-16.1,10.6-17.2,11.4-17.7
		C-3.1,188.6-1.7,188.5-0.3,189.1"/>
</g>
<g id="g1374" transform="matrix(1.25,0,0,-1.25,453.07875,699.7722)">
	<path id="path1376" fill="#E9E9E9" d="M-7.2,222.2c18.9,4.6,19.7,4.8,20.4,5.3c1.1,0.7,1.7,2.1,1.6,3.7c0,0.1,0,0.1,0,0.1
		C14.4,236,6.3,248.1,2.3,250c-1.4,0.7-2.8,0.6-4-0.1c-0.7-0.5-1.3-1.2-11.4-15c0,0-4.6-6.2-4.6-6.3c-1.2-1.5-1.2-3.6-0.1-5.4
		c1.2-1.9,3.3-2.8,5.2-2.2l-0.1-0.1C-11.9,221-10.2,221.5-7.2,222.2"/>
</g>
<g id="g1378" transform="matrix(1.25,0,0,-1.25,448.33375,695.87095)">
	<path id="path1380" fill="#E9E9E9" d="M-22.4,234.7c-0.3,7.5-2.5,40.9-2.8,42.5c-0.4,1.4-1.5,2.4-3.1,2.8c-4.8,1.2-23.3-4-26.7-7.5
		c-1.1-1.1-1.5-2.5-1.2-3.8c0.5-1.1,23.4-37.1,23.4-37.1c3.4-5.5,6.1-4.6,7-4.3C-24.8,227.4-22.1,228.3-22.4,234.7"/>
</g>
<g id="g1382" transform="matrix(1.25,0,0,-1.25,438.53875,696.92845)">
	<path id="path1384" fill="#BE2826" d="M-53.7,231.3c-1.8-2.9-2.5-12-1.9-18c0.2-2,0.6-3.7,1.1-4.6c0.7-1.3,1.9-2.2,3.3-2.2
		c0.9-0.1,1.4,0.1,18.1,5.5l7.4,2.4c1.9,0.4,3.1,2.2,3.2,4.3c0.1,2.2-1,4.2-2.9,4.9l-5.2,2.1c-17.9,7.4-18.7,7.7-19.6,7.7
		C-51.7,233.3-52.9,232.6-53.7,231.3"/>
</g>
<g id="g1386" transform="matrix(1.25,0,0,-1.25,448.53875,710.66595)">
	<path id="path1388" fill="#BE2826" d="M-21.7,187.3c0.3,0.8,0.3,1.4,0.4,18.9c0,0,0.1,7.7,0.1,7.8c0.1,1.9-1.1,3.6-3.1,4.4
		c-2.1,0.8-4.3,0.3-5.5-1.3l-3.7-4.3C-46.2,198-46.7,197.4-47,196.5c-0.1-0.5-0.2-1-0.2-1.6c0.1-0.7,0.4-1.6,1-2.2
		c2.9-3.4,16.8-8.6,21.3-7.8C-23.3,185.1-22.2,186-21.7,187.3"/>
</g>
<g id="g1390" transform="matrix(1.25,0,0,-1.25,455.60375,709.1447)">
	<path id="path1392" fill="#BE2826" d="M0.9,192.1c4.2,1.6,13.4,13.4,14.1,17.9c0.2,1.6-0.3,2.9-1.3,3.7c-0.7,0.5-1.3,0.7-17.9,6.2
		c0,0-7.3,2.4-7.4,2.5c-1.8,0.7-3.8,0.1-5.2-1.6c-1.4-1.7-1.6-4-0.5-5.7l2.9-4.8c9.9-16.1,10.6-17.2,11.4-17.7
		C-1.9,191.7-0.5,191.6,0.9,192.1"/>
</g>
<g id="g1394" transform="matrix(1.25,0,0,-1.25,453.455,698.8272)">
	<path id="path1396" fill="#BE2826" d="M-6,225.2c18.9,4.6,19.7,4.9,20.4,5.3c1.1,0.7,1.7,2.1,1.6,3.7c0,0.1,0,0.1,0,0.1
		c-0.4,4.6-8.6,16.7-12.6,18.7c-1.4,0.7-2.8,0.7-4-0.1c-0.7-0.4-1.3-1.2-11.4-15c0,0-4.6-6.2-4.6-6.3c-1.2-1.5-1.2-3.6-0.1-5.4
		c1.2-1.9,3.3-2.8,5.2-2.2l-0.1-0.1C-10.7,224.1-9,224.5-6,225.2"/>
</g>
<g id="g1398" transform="matrix(1.25,0,0,-1.25,448.7125,694.92595)">
	<path id="path1400" fill="#BE2826" d="M-21.2,237.7c-0.3,7.5-2.6,40.9-2.8,42.5c-0.4,1.4-1.5,2.4-3.1,2.8c-4.9,1.2-23.3-4-26.7-7.5
		c-1.1-1.1-1.5-2.5-1.2-3.8c0.5-1.1,23.4-37.1,23.4-37.1c3.4-5.5,6.1-4.6,7-4.3C-23.6,230.5-20.9,231.3-21.2,237.7"/>
</g>
<g id="g1402" transform="matrix(1.25,0,0,-1.25,390.21,714.68845)">
	<path id="path1404" fill="#231F20" d="M-208.6,174.4c2.4-2.2,6.9-2.8,12.4-1.7c5.2,1,8.3,3.3,11.4,13.1l15.2,48
		c0.8,2.5,0.7,4.8-0.1,6.4c-0.7,1.3-1.9,2.2-3.7,2.7c-2.7,0.7-6.1,0.7-8.3-6.7l-8-27.2l-16.4,30.9c-1,2.1-4,3.5-7.1,2.3
		c-4-1.5-5.4-5.2-3.7-9.8c0,0,19.9-40.4,19.9-40.5c0,0,0.5-1.4,0.5-1.6l0.1-1.1c-0.1-1.6-0.6-2.8-1.5-3.7c-0.9-0.9-2.2-1.3-3.7-1.3
		c0,0-3.1,0.1-3.4,0.1c-3.2-0.4-5.2-2.2-5.5-5C-210.6,177.2-210,175.6-208.6,174.4"/>
</g>
<g id="g1406" transform="matrix(1.25,0,0,-1.25,409.75875,703.3197)">
	<path id="path1408" fill="#231F20" d="M-146,210.8h-21.3c-0.6,0.4-0.8,1.1-0.4,3.2c0.3,1.1,0.6,2.1,1.4,3.5
		c0.3,0.4,0.6,0.8,0.8,1.3c1.6,1.9,3.7,3.2,6.1,3.8c7.5,1.8,12.7-1.9,13.5-8.4C-145.5,211.3-145.7,210.8-146,210.8z M-132.9,214.5
		c-0.7,7-3.4,12.3-7.8,15.7c-4.7,3.5-11.3,4.7-19.1,3.3c-9.8-1.7-15.7-8.7-17-20.3c-1.6-13.9,0.6-24.3,6.7-30.3
		c4.6-4.5,11.2-6.3,19.4-5.2c11.6,1.6,16.8,8,16.8,12c0,3-1.8,5.3-4.4,5.7c-1.5,0.3-2.8,0-5.6-2.5c-4-3.5-8.7-4.9-12.9-3.9
		c-3.1,0.8-5.7,3-6.8,6c0,0-0.5,2-0.4,1.8c-0.4,1.8-0.5,3.6,0.6,4.3l0.3,0.2h25.5c2.3,0,3.5,0.3,4.3,1
		C-132.2,203.9-132.3,208.4-132.9,214.5"/>
</g>
<g id="g1410" transform="matrix(1.25,0,0,-1.25,418.79625,693.2322)">
	<path id="path1412" fill="#231F20" d="M-117,243.2c-2,0.8-4.3,0.6-6.3-0.6c-1.9-1.1-2.7-2.8-2.7-6v-60.8c0,0,0.3-2.2,0.4-2.2
		c0.4-1.5,1.6-2.8,3.1-3.5c1.7-0.8,3.7-0.8,5.5,0.1c2.2,1,3.5,3.2,3.5,5.9V237c0,0-0.4,2.9-0.4,3
		C-114.3,241.3-115.4,242.5-117,243.2"/>
</g>
<g id="g1414" transform="matrix(1.25,0,0,-1.25,430.81125,708.65345)">
	<path id="path1416" fill="#231F20" d="M-78.5,193.7c-8.4,0-9.8,7.5-10,13.1l-0.1,3.3c0,0,0.1,2.5,0.1,2.5
		c0.5,9.8,2.5,13.6,7.7,14.7c3.4,0.8,6.1,0.4,8.1-1.2c3-2.4,4.3-7.5,4.2-15.9C-68.7,200.3-70.4,193.7-78.5,193.7z M-77.9,238.4
		c-5.6,1.1-10.5,0.1-15.1-3c0,0-0.5-0.4-0.7-0.5l-0.4-0.2l-1.3-0.6l-0.4,1.4l-0.3,0.5l-0.1,0.3v0.1c0,0-0.3,0.4-0.4,0.4
		c-1.3,2.1-4.9,3-8.2,1.2c-1.6-0.9-2.5-2.2-2.5-6v-59.7c0-3.3,1-5.3,3.3-6.4c1.9-1,4-1,5.8-0.2c1.6,0.7,2.7,1.9,3.1,3.4l0.4,2.5V182
		l-0.1,1.6l0.1,0.5l0.1,0.2l0.6,1.9l1.9-1.3c0,0,0.4-0.3,0.7-0.5l0.6-0.4l0.7-0.4l0.6-0.3c5-2.4,11.7-2.1,17.1,0.7
		c6.8,3.5,10.2,9.9,10.9,20.4C-60.1,225.8-64.9,235.8-77.9,238.4"/>
</g>
<g id="g1418" transform="matrix(1.25,0,0,-1.25,437.5,709.8197)">
	<path id="path1420" fill="#231F20" d="M-57.1,190h0.7c0.6,0,1.1,0,1.1,0.7c0,0.6-0.4,0.6-0.9,0.6h-0.9V190z M-57.6,191.8h1.5
		c1,0,1.4-0.4,1.4-1.2c0-0.7-0.4-1-1-1.1l1.2-1.8h-0.6l-1.1,1.7H-57v-1.7h-0.6V191.8z M-56.3,186.8c1.6,0,3,1.3,3,3c0,1.7-1.3,3-3,3
		c-1.6,0-3-1.3-3-3C-59.3,188.1-58,186.8-56.3,186.8z M-56.3,193.3c1.9,0,3.5-1.5,3.5-3.5c0-2-1.6-3.5-3.5-3.5
		c-1.9,0-3.5,1.5-3.5,3.5C-59.9,191.8-58.3,193.3-56.3,193.3"/>
</g>
</svg>
